<svg width="20" height="20" viewBox="0 0 20 20" fill="none" xmlns="http://www.w3.org/2000/svg"><path d="M14.1624 1.00684L15.2614 3.06752L17.322 4.16656L15.2614 5.26559L14.1624 7.32628L13.0633 5.26559L11.0026 4.16656L13.0633 3.06752L14.1624 1.00684ZM8.88453 7.77767L13.0512 9.99991L8.88453 12.2221L6.66233 16.3887L4.4401 12.2221L0.273438 9.99991L4.4401 7.77767L6.66233 3.611L8.88453 7.77767ZM9.50953 9.99991L7.65266 9.00958L6.66233 7.15267L5.67198 9.00958L3.8151 9.99991L5.67198 10.9902L6.66233 12.8471L7.65266 10.9902L9.50953 9.99991ZM16.3845 13.611L14.9957 11.0068L13.6068 13.611L11.0026 14.9999L13.6068 16.3887L14.9957 18.9929L16.3845 16.3887L18.9887 14.9999L16.3845 13.611Z"/></svg>