<svg width="20" height="20" viewBox="0 0 20 20" fill="none" xmlns="http://www.w3.org/2000/svg"><path d="M3.26468 6.69676C2.77487 7.69399 2.5 8.81559 2.5 9.99951C2.5 14.1416 5.85787 17.4995 10 17.4995C11.1847 17.4995 12.307 17.2243 13.3048 16.7338C14.0321 17.0449 14.7373 17.2488 15.3803 17.3013C16.1318 17.3626 16.9167 17.2217 17.4848 16.6535C18.1116 16.0267 18.2188 15.1403 18.1066 14.3102C18.0043 13.5528 17.7068 12.711 17.2717 11.8424C17.4209 11.2521 17.5 10.6345 17.5 9.99951C17.5 5.85734 14.1422 2.49948 10 2.49948C9.36575 2.49948 8.74892 2.57838 8.15919 2.72724C7.2895 2.29109 6.44671 1.99269 5.68842 1.88988C4.85748 1.77722 3.97005 1.88399 3.34268 2.51137C2.77392 3.08013 2.63334 3.86589 2.69508 4.6182C2.74793 5.26209 2.95261 5.96832 3.26468 6.69676ZM4.43533 4.97104C4.3945 4.79394 4.36837 4.63055 4.35617 4.48187C4.31607 3.99329 4.43106 3.78 4.52119 3.68988C4.62043 3.59064 4.87331 3.46129 5.46449 3.54144C5.62902 3.56374 5.80792 3.60117 6 3.65415C5.4197 4.02065 4.89336 4.46446 4.43533 4.97104ZM16.3437 14.0021C16.3959 14.1926 16.4329 14.37 16.4549 14.5333C16.5347 15.1233 16.4054 15.3758 16.3063 15.475C16.2163 15.565 16.0033 15.6798 15.5158 15.6401C15.3683 15.6281 15.2063 15.6023 15.0307 15.5621C15.5356 15.1053 15.978 14.5805 16.3437 14.0021ZM13.2343 14.8549C11.8372 14.1231 10.2143 12.9184 8.646 11.3502C7.0795 9.78376 5.87577 8.1626 5.14368 6.76649C5.88631 5.65347 7.00103 4.81053 8.30778 4.41514C8.84233 4.2534 9.41025 4.16614 10 4.16614C13.2217 4.16614 15.8333 6.77781 15.8333 9.99951C15.8333 10.5898 15.7459 11.1583 15.5838 11.6933C15.1884 12.9988 14.3463 14.1126 13.2343 14.8549ZM11.3377 15.6789C10.9084 15.7795 10.4607 15.8328 10 15.8328C6.77834 15.8328 4.16667 13.2211 4.16667 9.99951C4.16667 9.53926 4.21981 9.09201 4.32024 8.66318C5.12403 9.92709 6.19563 11.2568 7.46747 12.5287C8.74083 13.8021 10.0723 14.8748 11.3377 15.6789Z"/></svg>