<svg width="360" height="360" viewBox="0 0 360 360" fill="none" xmlns="http://www.w3.org/2000/svg">
<path d="M177.851 15.4921L180 10.0442L182.149 15.4921C184.739 22.0604 189.929 27.2568 196.482 29.8412L201.956 32L196.482 34.1588C189.929 36.7432 184.739 41.9396 182.149 48.5079L180 53.9558L177.851 48.5079C175.261 41.9396 170.071 36.7432 163.518 34.1588L158.044 32L163.518 29.8412C170.071 27.2568 175.261 22.0604 177.851 15.4921Z" stroke="#636779" stroke-width="1.5"/>
<path d="M70.7195 168.781L60.0328 169.427L60.078 170.176L56.0475 170.419L58.2303 173.647L57.609 174.067L63.4481 182.702L64.0694 182.282L69.9084 190.916L69.2872 191.336L75.1263 199.971L75.7475 199.551L81.5866 208.185L80.9654 208.605L86.8045 217.24L87.4257 216.82L93.2648 225.454L92.6435 225.875L98.4826 234.509L99.1039 234.089L104.943 242.724L104.322 243.144L110.161 251.778L110.782 251.358L116.621 259.993L116 260.413L121.839 269.047L122.46 268.627L128.299 277.262L127.678 277.682L133.517 286.316L134.138 285.896L139.978 294.531L139.356 294.951L145.195 303.585L145.817 303.165L151.656 311.8L151.034 312.22L156.874 320.855L157.495 320.434L163.334 329.069L162.713 329.489L168.552 338.124L169.173 337.704L175.012 346.338L174.391 346.758L180.23 355.393L180.851 354.973L183.132 358.346L185.28 354.989L185.912 355.393L191.436 346.758L190.805 346.354L196.329 337.719L196.961 338.124L202.485 329.489L201.854 329.085L207.378 320.45L208.01 320.855L213.534 312.22L212.903 311.816L218.427 303.181L219.059 303.585L224.584 294.951L223.952 294.547L229.476 285.912L230.108 286.316L235.633 277.682L235.001 277.278L240.525 268.643L241.157 269.047L246.682 260.413L246.05 260.009L251.575 251.374L252.206 251.778L257.731 243.144L257.099 242.739L262.624 234.105L263.255 234.509L268.78 225.875L268.148 225.47L273.673 216.836L274.304 217.24L279.829 208.605L279.197 208.201L284.722 199.567L285.354 199.971L290.878 191.336L290.246 190.932L295.771 182.298L296.403 182.702L301.927 174.067L301.295 173.663L303.372 170.418L299.568 170.176L299.616 169.427L289.469 168.781L289.422 169.53L279.275 168.884L279.323 168.135L269.176 167.49L269.128 168.238L258.982 167.592L259.029 166.844L248.883 166.198L248.835 166.946L238.688 166.301L238.736 165.552L228.589 164.906L228.542 165.655L218.395 165.009L218.443 164.26L208.296 163.615L208.248 164.363L198.102 163.717L198.149 162.969L188.003 162.323L187.955 163.071L182.928 162.751L177.631 163.072L177.586 162.323L166.899 162.969L166.945 163.717L156.258 164.363L156.213 163.615L145.526 164.26L145.571 165.009L134.885 165.655L134.839 164.906L124.153 165.552L124.198 166.301L113.511 166.947L113.466 166.198L102.779 166.844L102.825 167.592L92.138 168.238L92.0928 167.49L81.4061 168.135L81.4514 168.884L70.7647 169.53L70.7195 168.781Z" stroke="#636779" stroke-width="1.5" stroke-dasharray="10 10"/>
<path d="M305.093 170.502L183.806 196.053M183.806 196.053L55.5742 170.502M183.806 196.053V359.111" stroke="#636779" stroke-width="1.5" stroke-dasharray="10 10"/>
</svg>
