<svg id="Layer_1" xmlns="http://www.w3.org/2000/svg" viewBox="0 0 100 100"><g id="_.logo_op"><circle id="Ellipse_1" cx="50" cy="50" r="50" style="fill:#ff0420; stroke-width:0px;"/><g id="OP"><path d="M51.89,64c-.25,0-.46-.09-.61-.27-.15-.18-.2-.41-.15-.68l5.24-24.7c.05-.28.19-.51.42-.68.23-.18.47-.27.72-.27h10.11c1.55,0,2.94.18,4.18.53,1.27.35,2.32.9,3.15,1.63.84.73,1.42,1.66,1.75,2.77.33,1.09.34,2.37.04,3.84-.63,2.91-1.93,5.07-3.88,6.46-1.93,1.39-4.52,2.09-7.79,2.09h-5.13l-1.75,8.32c-.05.28-.19.51-.42.68-.2.18-.44.27-.72.27h-5.17ZM60.93,49.48h4.37c1.04,0,1.96-.28,2.77-.84.84-.56,1.38-1.41,1.63-2.55.13-.66.15-1.24.08-1.75-.08-.51-.34-.91-.8-1.22-.43-.3-1.1-.46-2.01-.46h-4.56l-1.48,6.8Z" style="fill:#fff; stroke-width:0px;"/><path d="M35.63,64.38c-1.6,0-3.08-.22-4.45-.65-1.37-.43-2.52-1.08-3.46-1.94-.94-.86-1.61-1.94-2.01-3.23-.38-1.29-.43-2.8-.15-4.52.2-1.09.42-2.18.65-3.27.25-1.09.51-2.19.76-3.31.84-3.42,2.34-6.02,4.52-7.79,2.18-1.77,5.12-2.66,8.82-2.66,1.6,0,3.07.23,4.41.68,1.37.43,2.52,1.09,3.46,1.98.96.89,1.63,1.98,2.01,3.27.41,1.29.46,2.8.15,4.52-.18,1.11-.39,2.22-.65,3.31-.23,1.09-.47,2.18-.72,3.27-.86,3.47-2.38,6.07-4.56,7.79-2.18,1.7-5.1,2.55-8.78,2.55ZM36.12,58.91c1.37,0,2.57-.4,3.61-1.22,1.04-.81,1.77-2.1,2.2-3.88.28-1.11.52-2.17.72-3.15.23-.99.43-2.01.61-3.08.33-1.77.18-3.07-.46-3.88-.63-.81-1.63-1.22-3-1.22s-2.57.41-3.61,1.22c-1.01.81-1.74,2.1-2.17,3.88-.28,1.06-.53,2.09-.76,3.08-.2.99-.41,2.04-.61,3.15-.3,1.77-.15,3.07.46,3.88.61.81,1.61,1.22,3,1.22Z" style="fill:#fff; stroke-width:0px;"/></g></g></svg>